#!OML:ASF C:\ViconDB\ViconDB\414\Spring2016\042216\male.ASF
:FULLY-SPECIFIED
:DEGREES
700
root 45.0459 17.7705 12.1921 -59.3915 88.8404 -60.1897
lowerback -3.50567 -1.40518 4.69691
upperback -1.06175 -2.01572 -0.704404
thorax 0.68413 -1.00636 -3.43728
lowerneck -2.8466 8.50596 0.616236
upperneck 10.0466 11.6618 -1.28796
head 3.90118 5.78784 -0.0201786
rclavicle 2.15215e-014 -7.00716e-015
rhumerus -32.2599 -6.05229 -92.7586
rradius 25.9799
rwrist 33.6979
rhand 15.6366 -17.2525
rfingers 7.12502
rthumb 40.4506 -42.3411
lclavicle 2.15215e-014 -7.00716e-015
lhumerus -37.2085 14.3982 86.2472
lradius 30.413
lwrist -18.9067
lhand -6.40317 12.1268
lfingers 7.12502
lthumb 19.4447 41.1745
rfemur -7.22341 5.98089 22.1456
rtibia 23.7657
rfoot -18.4166 -7.73514
rtoes -8.55536
lfemur -6.46697 -1.51595 -19.4908
ltibia 25.3308
lfoot -26.9102 8.46504
ltoes -10.2413
701
root 45.0448 17.7698 12.1899 -59.2217 88.8479 -60.0272
lowerback -3.54904 -1.39333 4.69198
upperback -1.0385 -2.00251 -0.71668
thorax 0.73332 -0.998148 -3.44853
lowerneck -2.91121 8.54621 0.602697
upperneck 10.0849 11.7123 -1.23334
head 3.92297 5.8135 0.00627571
rclavicle -1.93815e-015 -7.45443e-016
rhumerus -32.2093 -6.13259 -92.7599
rradius 25.9333
rwrist 33.7202
rhand 15.7626 -17.1879
rfingers 7.12502
rthumb 40.569 -42.2398
lclavicle -1.93815e-015 -7.45443e-016
lhumerus -37.1437 14.1033 86.372
lradius 30.3801
lwrist -18.6716
lhand -6.49753 12.12
lfingers 7.12502
lthumb 19.354 41.1768
rfemur -7.23111 6.23704 22.1327
rtibia 23.7669
rfoot -18.461 -7.91622
rtoes -8.21279
lfemur -6.49007 -1.50949 -19.5082
ltibia 25.3368
lfoot -26.9792 8.44543
ltoes -10.0561
702
root 45.044 17.7726 12.1873 -59.816 88.8609 -60.6205
lowerback -3.58476 -1.38684 4.69062
upperback -1.02081 -1.99603 -0.723417
thorax 0.771943 -0.993645 -3.45595
lowerneck -2.92267 8.6068 0.564889
upperneck 10.1043 11.7883 -1.14847
head 3.92404 5.85304 0.0439679
rclavicle -5.04105e-015 1.83876e-015
rhumerus -32.1711 -6.1258 -92.7755
rradius 25.9072
rwrist 33.6241
rhand 15.8369 -17.1611
rfingers 7.12502
rthumb 40.6388 -42.1912
lclavicle -5.04105e-015 1.83876e-015
lhumerus -37.1102 13.8184 86.5118
lradius 30.4477
lwrist -18.3996
lhand -6.5304 12.1942
lfingers 7.12502
lthumb 19.3224 41.2542
rfemur -7.22753 6.22102 22.1178
rtibia 23.7637
rfoot -18.4868 -7.91574
rtoes -8.23313
lfemur -6.50276 -1.54897 -19.5175
ltibia 25.3513
lfoot -26.8956 8.42311
ltoes -10.1788
703
root 45.0438 17.774 12.1858 -60.7035 88.8717 -61.4995
lowerback -3.59774 -1.37413 4.69386
upperback -1.029 -1.97942 -0.736134
thorax 0.771752 -0.985475 -3.47057
lowerneck -2.74674 8.62076 0.342576
upperneck 10.0043 11.7936 -0.917319
head 3.82198 5.86029 0.139797
rclavicle 6.01945e-015 6.36111e-015
rhumerus -32.1876 -6.16502 -92.7778
rradius 25.9012
rwrist 33.6853
rhand 15.7277 -17.1307
rfingers 7.12502
rthumb 40.5362 -42.1927
lclavicle 6.01945e-015 6.36111e-015
lhumerus -37.1075 13.8159 86.4927
lradius 30.4045
lwrist -18.5004
lhand -6.52348 12.1534
lfingers 7.12502
lthumb 19.3291 41.2127
rfemur -7.21606 6.41671 22.1189
rtibia 23.7459
rfoot -18.4804 -8.09503
rtoes -8.11004
lfemur -6.51588 -1.55344 -19.5255
ltibia 25.3689
lfoot -26.8856 8.40662
ltoes -10.1238
704
root 45.043 17.7726 12.1854 -62.8642 88.8559 -63.6185
lowerback -3.57006 -1.36707 4.71868
upperback -1.02375 -1.96982 -0.726961
thorax 0.762044 -0.980854 -3.47396
lowerneck -2.67932 8.74215 0.608023
upperneck 9.97212 11.9578 -1.08774
head 3.83054 5.94473 0.0466336
rclavicle -1.17749e-014 1.83379e-014
rhumerus -32.1899 -6.18103 -92.768
rradius 25.8913
rwrist 33.7819
rhand 16.164 -16.9504
rfingers 7.12502
rthumb 40.9462 -41.8839
lclavicle -1.17749e-014 1.83379e-014
lhumerus -37.0787 13.5729 86.6167
lradius 30.3946
lwrist -18.3752
lhand -6.50731 12.1714
lfingers 7.12502
lthumb 19.3446 41.2292
rfemur -7.15236 6.37727 22.1767
rtibia 23.7437
rfoot -18.4511 -8.16994
rtoes -8.31811
lfemur -6.49419 -1.56793 -19.4922
ltibia 25.3781
lfoot -26.8778 8.42156
ltoes -10.2479
